<svg width="29" height="29" viewBox="0 0 29 29" fill="none" xmlns="http://www.w3.org/2000/svg">
<circle cx="14.5" cy="14.5" r="14.5" fill="#FCBA14"/>
<path d="M14.2134 22.6356V6.2798H15.2612V22.6356H14.2134ZM17.7401 11.1865C17.6634 10.5391 17.3525 10.0365 16.8073 9.67874C16.2621 9.32096 15.5934 9.14207 14.8012 9.14207C14.2219 9.14207 13.7151 9.23577 13.2806 9.42318C12.8504 9.61059 12.5139 9.86828 12.2712 10.1962C12.0326 10.5242 11.9134 10.8969 11.9134 11.3143C11.9134 11.6636 11.9964 11.9639 12.1625 12.2152C12.3329 12.4622 12.5501 12.6688 12.8142 12.8349C13.0783 12.9967 13.3552 13.1309 13.6448 13.2374C13.9344 13.3396 14.2006 13.4227 14.4434 13.4866L15.7723 13.8443C16.1131 13.9338 16.4921 14.0573 16.9095 14.2149C17.3312 14.3725 17.7337 14.5876 18.1171 14.8602C18.5047 15.1285 18.8241 15.4735 19.0754 15.8952C19.3267 16.3169 19.4524 16.8344 19.4524 17.4477C19.4524 18.1548 19.2671 18.7937 18.8965 19.3644C18.5302 19.9352 17.9935 20.3888 17.2865 20.7253C16.5837 21.0618 15.7297 21.23 14.7245 21.23C13.7875 21.23 12.9761 21.0788 12.2903 20.7764C11.6088 20.474 11.0722 20.0523 10.6803 19.5114C10.2927 18.9704 10.0733 18.3422 10.0222 17.6266H11.6578C11.7004 18.1207 11.8665 18.5296 12.1562 18.8533C12.45 19.1728 12.8206 19.4113 13.2678 19.5689C13.7193 19.7222 14.2049 19.7989 14.7245 19.7989C15.3293 19.7989 15.8724 19.7009 16.3537 19.505C16.835 19.3048 17.2162 19.0279 17.4973 18.6744C17.7784 18.3166 17.919 17.8992 17.919 17.4222C17.919 16.9877 17.7976 16.6342 17.5548 16.3616C17.3121 16.089 16.9926 15.8675 16.5965 15.6972C16.2004 15.5268 15.7723 15.3777 15.3123 15.2499L13.7023 14.7899C12.68 14.496 11.8708 14.0765 11.2745 13.5313C10.6782 12.9861 10.38 12.2727 10.38 11.391C10.38 10.6584 10.5781 10.0195 10.9742 9.47429C11.3746 8.92484 11.9112 8.49891 12.5842 8.1965C13.2614 7.88983 14.0175 7.73649 14.8523 7.73649C15.6956 7.73649 16.4453 7.8877 17.1012 8.19011C17.7572 8.48826 18.2768 8.89715 18.6601 9.41679C19.0477 9.93643 19.2522 10.5263 19.2735 11.1865H17.7401Z" fill="white"/>
</svg>
